<svg xmlns="http://www.w3.org/2000/svg" xmlns:xlink="http://www.w3.org/1999/xlink" width="300.738" height="283.396" viewBox="0 0 300.738 283.396">
  <defs>
    <linearGradient id="linear-gradient" x1="-12.649" y1="-19.387" x2="-10.809" y2="-19.387" gradientUnits="objectBoundingBox">
      <stop offset="0" stop-color="#ef473a"/>
      <stop offset="1" stop-color="#ef4379"/>
    </linearGradient>
    <linearGradient id="linear-gradient-2" y1="0.5" x2="1" y2="0.5" gradientUnits="objectBoundingBox">
      <stop offset="0" stop-color="#ef473a"/>
      <stop offset="1" stop-color="#a34379"/>
    </linearGradient>
    <linearGradient id="linear-gradient-3" x1="0" y1="0.5" x2="1" y2="0.5" xlink:href="#linear-gradient"/>
    <linearGradient id="linear-gradient-4" x1="0.21" y1="-0.081" x2="0.834" y2="1.05" gradientUnits="objectBoundingBox">
      <stop offset="0" stop-color="#b2b2b2"/>
      <stop offset="1" stop-color="#858585"/>
    </linearGradient>
  </defs>
  <g id="Groupe_111" data-name="Groupe 111" transform="translate(-1272.749 -1979.388)">
    <g id="Groupe_110" data-name="Groupe 110" transform="translate(1282.649 1979.388)">
      <g id="Groupe_103" data-name="Groupe 103" transform="translate(68.66 218.077)">
        <path id="Tracé_31" data-name="Tracé 31" d="M13685,6249" transform="translate(-13685 -6249)" fill="none" stroke="#1e1e1e" stroke-linecap="round" stroke-miterlimit="10" stroke-width="34"/>
      </g>
      <g id="Groupe_108" data-name="Groupe 108">
        <g id="Groupe_104" data-name="Groupe 104" transform="translate(4.813 40.632)">
          <path id="Tracé_32" data-name="Tracé 32" d="M13641,5698.1c-58.016-17.613-129.7-19.155-159.313-2.5" transform="translate(-13481.689 -5683.953)" fill="none" stroke="#1e1e1e" stroke-linecap="round" stroke-miterlimit="10" stroke-width="15"/>
        </g>
        <g id="Groupe_105" data-name="Groupe 105" transform="translate(0 23.373)">
          <path id="Tracé_33" data-name="Tracé 33" d="M13635.459,5658.8c-52.36-32.112-121.14-38.812-169.1-17.487" transform="translate(-13466.363 -5628.996)" fill="none" stroke="#1e1e1e" stroke-linecap="round" stroke-miterlimit="10" stroke-width="15"/>
        </g>
        <g id="Groupe_106" data-name="Groupe 106" transform="translate(158.875 68.315)">
          <path id="Tracé_34" data-name="Tracé 34" d="M13972.279,5772.106c17.157,16.448,33.338,33.674,52.59,48.128" transform="translate(-13972.279 -5772.106)" fill="none" stroke="#1e1e1e" stroke-linecap="round" stroke-miterlimit="10" stroke-width="15"/>
        </g>
        <g id="Groupe_107" data-name="Groupe 107" transform="translate(189.049 58.436)">
          <path id="Tracé_35" data-name="Tracé 35" d="M14068.361,5740.648c10.344,18.5,19.952,37.627,31.964,54.942" transform="translate(-14068.361 -5740.648)" fill="none" stroke="#1e1e1e" stroke-linecap="round" stroke-miterlimit="10" stroke-width="15"/>
        </g>
        <path id="Tracé_36" data-name="Tracé 36" d="M14005.1,5687.608c-19.366,3.41-37.856-10.9-40.875-30.414a35.025,35.025,0,0,1,29.681-40.448,35.444,35.444,0,0,1,40.656,29.724A36.086,36.086,0,0,1,14005.1,5687.608Z" transform="translate(-13807.581 -5596.941)" fill="#1e1e1e"/>
        <path id="Tracé_37" data-name="Tracé 37" d="M13970.369,5636.205" transform="translate(-13812.094 -5610.567)" fill="none" stroke="#fff" stroke-linecap="round" stroke-linejoin="round" stroke-width="7"/>
        <path id="Tracé_38" data-name="Tracé 38" d="M13860.084,5625.811" transform="translate(-13736.441 -5603.438)" fill="none" stroke="#fff" stroke-linecap="round" stroke-linejoin="round" stroke-width="7"/>
        <path id="Tracé_39" data-name="Tracé 39" d="M14077.349,5801.865a1.855,1.855,0,1,1,.346-2.578A1.779,1.779,0,0,1,14077.349,5801.865Z" transform="translate(-13883.44 -5721.905)" fill="#fff"/>
        <path id="Tracé_40" data-name="Tracé 40" d="M14100.124,5834.6a3.606,3.606,0,0,0-.729-1.91c-1.277-1.288-2.8-1.687-4.359-.624-1.227.84-1.264,2.108-1.132,3.456.988-.055,1.964-.139,2.936-.279C14097.95,5835.082,14099.028,5834.853,14100.124,5834.6Z" transform="translate(-13896.799 -5744.504)" fill="#fff"/>
        <path id="Tracé_41" data-name="Tracé 41" d="M14054.064,5636.428c-6.557-16.179-15.539-40.848-21.418-54.734s-8.359-14.1-12.861-23.344.15,2.036-3.691-3.2c-.25-.341-.109.221-.2.224a3.947,3.947,0,0,0-3.709,2.368,1.906,1.906,0,0,0-.217.563,4.2,4.2,0,0,0,.51,3.548c1.057,1.64,2.455,3.429,3.574,5.089-2.762-1.048-5.719-2.349-8.437-3.328a2.521,2.521,0,0,0-2.367.028c-.055-.068-.043-.052,0,0-1.666.925-1.928,2.3-1.395,4.039a4.267,4.267,0,0,0,.549,1.045,3.138,3.138,0,0,0,1.42,1.332c5.883,2.762,11.914,5.516,17.84,8.294,8.1,20.326,16.191,40.723,24.412,60.969.455,1.122,1.006,1.21,1.883,1.814.156.108.49.105.582.156,1.383.729,2.467-.271,3.369-.912C14054.973,5639.627,14054.508,5637.518,14054.064,5636.428Z" transform="translate(-13834.893 -5554.566)" fill="url(#linear-gradient)"/>
        <path id="Tracé_42" data-name="Tracé 42" d="M13881.857,5733.5a51.412,51.412,0,0,0-31.784-22.746c-5.724-3.509,48.361,10.287,48.361,10.287Z" transform="translate(-13729.283 -5661.311)" fill="#1e1e1e"/>
      </g>
      <g id="Groupe_109" data-name="Groupe 109" transform="translate(142.458 125.122)">
        <ellipse id="Ellipse_5" data-name="Ellipse 5" cx="74.112" cy="16.645" rx="74.112" ry="16.645" transform="translate(0 0)" fill="#dbdbdb"/>
        <ellipse id="Ellipse_6" data-name="Ellipse 6" cx="67.518" cy="13.725" rx="67.518" ry="13.725" transform="translate(6.595 2.92)" fill="#b2b2b2"/>
      </g>
      <path id="Tracé_43" data-name="Tracé 43" d="M14056,6015.322s-26.855-8.323-46.859-6.753-36.8,9.569-54.371,9.337S14056,6015.322,14056,6015.322Z" transform="translate(-13800.179 -5865.861)" fill="url(#linear-gradient-2)"/>
      <path id="Tracé_44" data-name="Tracé 44" d="M13927,6014.04s30.933-2.669,51.03-.471,62.336-10.991,84-1.57-4.867,34.229-4.867,34.229L13927,6030.443Z" transform="translate(-13782.345 -5865.994)" fill="url(#linear-gradient-3)"/>
      <path id="Tracé_45" data-name="Tracé 45" d="M14068.381,6005.539h-6.594c6.594,21.9-145.713,20.733-135.036,0h-6.594s-.156,124.77-.156,125.129c0,9.193,33.181,16.646,74.112,16.646s74.111-7.453,74.111-16.646C14068.225,6130.62,14068.381,6005.539,14068.381,6005.539Z" transform="translate(-13777.543 -5863.918)" fill="url(#linear-gradient-4)"/>
      <path id="Tracé_46" data-name="Tracé 46" d="M14060.993,6000h0a4.214,4.214,0,0,1,.36.645c.011.028.024.056.036.084.023.059.047.118.068.176s.039.124.057.185.029.107.041.161c.018.077.031.153.043.229,0,.032.009.064.012.1a2.706,2.706,0,0,1,.02.309,4.262,4.262,0,0,1-1.729,3.1,10.455,10.455,0,0,1-.833.657,17.143,17.143,0,0,1-2.121,1.275,36.625,36.625,0,0,1-5.092,2.084c-1.41.472-2.956.924-4.626,1.356-3.341.864-7.182,1.645-11.433,2.324q-.637.1-1.288.2-1.3.2-2.646.382c-.448.062-.9.123-1.358.182q-1.37.178-2.785.344-2.12.248-4.335.465-1.475.145-2.99.275-3.787.325-7.8.558-1.6.092-3.235.169c-4.9.23-10,.352-15.247.352s-10.349-.122-15.248-.352q-1.635-.076-3.236-.169-4-.231-7.8-.558-1.513-.13-2.99-.275-2.215-.217-4.335-.465-1.415-.165-2.785-.344-.684-.089-1.358-.182-1.346-.185-2.646-.382-.65-.1-1.288-.2c-4.251-.68-8.091-1.46-11.433-2.324-1.67-.432-3.216-.885-4.626-1.356a36.608,36.608,0,0,1-5.091-2.084,17.16,17.16,0,0,1-2.122-1.275,10.282,10.282,0,0,1-.833-.657,4.262,4.262,0,0,1-1.729-3.1,2.706,2.706,0,0,1,.02-.309c0-.033.008-.065.013-.1.011-.077.024-.153.042-.229.012-.053.027-.107.042-.161s.036-.123.057-.185.044-.118.067-.176c.012-.028.024-.056.038-.084a4.117,4.117,0,0,1,.358-.645h-6.756a4.19,4.19,0,0,0-.475,1.886c0,9.193,33.181,16.645,74.112,16.645s74.111-7.452,74.111-16.645a4.178,4.178,0,0,0-.476-1.886Z" transform="translate(-13777.543 -5860.118)" fill="#dbdbdb"/>
      <path id="Tracé_47" data-name="Tracé 47" d="M13888.176,6090.454c-33.456,45.68-34,99.479,83.69-22.454" transform="translate(-13742.421 -5906.764)" fill="none" stroke="#5b5b5b" stroke-linecap="round" stroke-miterlimit="10" stroke-width="18"/>
    </g>
  </g>
</svg>
