<svg xmlns="http://www.w3.org/2000/svg" width="51.112" height="51.041" viewBox="0 0 51.112 51.041">
  <path id="Tracé_140" data-name="Tracé 140" d="M8838.059-2407.544a24.252,24.252,0,0,1-24.424-24.149,24.536,24.536,0,0,1,24.307-24.391,24.509,24.509,0,0,1,24.306,24.39A24.212,24.212,0,0,1,8838.059-2407.544ZM8834.1-2424.6v3.615c0,3.788,0,3.715,3.879,3.75,1.49.014,1.94-.416,1.892-1.906-.108-3.31.079-6.632-.076-9.938-.093-1.976.356-2.963,2.524-2.6.548.092,1.539.288,1.654-.274a14.646,14.646,0,0,0,.451-5.1c-.138-.872-1.73-.355-2.658-.385-.994-.031-1.765-.009-1.66-1.389.088-1.187,0-2.241,1.687-2.335.923-.052,2.31.761,2.726-.655a12.409,12.409,0,0,0,.078-3.37c0-.53-.271-.742-.8-.877-5.725-1.464-9.373,1.195-9.707,7.194-.06,1.041-.291,1.574-1.4,1.405-1.258-.191-1.553.459-1.479,1.572.071,1.05.023,2.108.016,3.162,0,.573.082,1.17.81,1.048,2.271-.38,2.132,1.067,2.078,2.562S8834.1-2426.1,8834.1-2424.6Z" transform="translate(-8812.385 2457.335)" fill="none" stroke="#fff" stroke-miterlimit="10" stroke-width="2.5"/>
</svg>
