<svg xmlns="http://www.w3.org/2000/svg" width="51.115" height="50.965" viewBox="0 0 51.115 50.965">
  <g id="Groupe_303" data-name="Groupe 303" transform="translate(1.25 1.25)">
    <path id="Tracé_142" data-name="Tracé 142" d="M8977.01-2391.845a24.274,24.274,0,0,1-24.213-24.376,24.3,24.3,0,0,1,24.517-24.089,24.31,24.31,0,0,1,24.1,24.282A24.245,24.245,0,0,1,8977.01-2391.845Zm.218-37.174c-2.487,0-4.975-.043-7.461.011a5.311,5.311,0,0,0-5.541,5.358q-.179,7.569,0,15.145a5.232,5.232,0,0,0,5.519,5.358q7.346.089,14.7,0a5.172,5.172,0,0,0,5.5-5.337q.13-7.571,0-15.146a5.233,5.233,0,0,0-5.475-5.379C8982.051-2429.065,8979.639-2429.02,8977.228-2429.02Z" transform="translate(-8952.796 2440.31)" fill="none" stroke="#fff" stroke-miterlimit="10" stroke-width="2.5"/>
    <path id="Tracé_143" data-name="Tracé 143" d="M8998.415-2403.87a6.671,6.671,0,0,0-6.8,6.671,6.709,6.709,0,0,0,6.786,6.708,6.767,6.767,0,0,0,6.716-6.577A6.731,6.731,0,0,0,8998.415-2403.87Zm7.216-1.95c-.971.124-1.59.628-1.57,1.588a1.392,1.392,0,0,0,1.615,1.444,1.314,1.314,0,0,0,1.395-1.411A1.483,1.483,0,0,0,9005.631-2405.819Z" transform="translate(-8974.041 2421.432)" fill="none" stroke="#fff" stroke-miterlimit="10" stroke-width="2.5"/>
  </g>
</svg>
