<svg xmlns="http://www.w3.org/2000/svg" width="51.091" height="50.963" viewBox="0 0 51.091 50.963">
  <path id="Tracé_141" data-name="Tracé 141" d="M9134.527-2399.427a24.208,24.208,0,0,1-24.323-24.246,24.294,24.294,0,0,1,24.378-24.218,24.3,24.3,0,0,1,24.213,24.161A24.245,24.245,0,0,1,9134.527-2399.427Zm12.938-33.808c-1.389,1.041-2.619,1.536-4.419.389-3.845-2.448-8.512.062-8.884,4.7-.109,1.376-.435,1.593-1.713,1.363a18.314,18.314,0,0,1-10.33-5.795c-1.461,2.836-.621,5.1,1.281,7.479-2.469-.71-2.168.382-1.648,1.714.627,1.606,1.991,2.483,3.781,3.632-2.01-.18-2.265.319-1.359,1.548,1.061,1.438,2.643,2,4.322,2.62-2.312,1.769-4.83,2.252-7.8,2.286,9.45,6.2,22.216.657,24.765-10.439.565-2.465.383-5.129,2.723-6.93l-1.294.242-.313-.352c.222-.827,1.566-1.269.829-2.417l.042.1Z" transform="translate(-9108.954 2449.14)" fill="none" stroke="#fff" stroke-miterlimit="10" stroke-width="2.5"/>
</svg>
