<svg xmlns="http://www.w3.org/2000/svg" width="186.814" height="110.943" viewBox="0 0 186.814 110.943">
  <g id="Groupe_2" data-name="Groupe 2" transform="translate(-43.342 0)">
    <g id="Groupe_1" data-name="Groupe 1" transform="translate(43.342)">
      <path id="Tracé_2" data-name="Tracé 2" d="M6740.355,8690.319l-20.8-41.392a10.6,10.6,0,0,0-5.322-6.224h0a10.509,10.509,0,0,0-4.494-1.11c-.118,0-.237,0-.357,0s-.239,0-.358,0a10.507,10.507,0,0,0-4.492,1.11h0a10.594,10.594,0,0,0-5.323,6.224l-11.367,22.619-11.368-22.619a10.592,10.592,0,0,0-5.322-6.224h0a10.5,10.5,0,0,0-4.492-1.11c-.119,0-.239,0-.358,0s-.238,0-.358,0a10.5,10.5,0,0,0-4.492,1.11h0a10.589,10.589,0,0,0-5.322,6.224l-20.8,41.392a10.66,10.66,0,0,0,4.724,14.271h0a10.662,10.662,0,0,0,14.271-4.724l11.98-23.84,11.98,23.84a10.642,10.642,0,0,0,8.744,5.809c.084.006.169.016.253.021.188.008.375.008.563.008s.376,0,.563-.008c.084-.006.169-.016.253-.021a10.643,10.643,0,0,0,8.744-5.809l11.98-23.84,11.98,23.84a10.63,10.63,0,0,0,19-9.547Z" transform="translate(-6554.667 -8641.552)" fill="#fff"/>
      <path id="Tracé_3" data-name="Tracé 3" d="M6523.265,8642.625h0a10.659,10.659,0,0,0-14.271,4.725l-12.121,24.117-11.368-22.62a10.594,10.594,0,0,0-5.323-6.222h0a10.519,10.519,0,0,0-4.492-1.111c-.119,0-.239,0-.358-.006s-.239,0-.358.006a10.516,10.516,0,0,0-4.492,1.111h0a10.593,10.593,0,0,0-5.323,6.222l-20.8,41.394a10.629,10.629,0,0,0,19,9.546l11.981-23.839,11.98,23.839a10.645,10.645,0,0,0,8.744,5.81c.084.006.169.016.253.02.188.01.375.01.563.008s.376,0,.563-.008c.084,0,.169-.014.253-.02a10.646,10.646,0,0,0,8.744-5.81l21.555-42.891A10.66,10.66,0,0,0,6523.265,8642.625Z" transform="translate(-6443.231 -8641.499)" fill="#fff"/>
    </g>
    <text id="nomads" transform="translate(137.555 100.943)" fill="#fff" font-size="42" font-family="Helvetica" letter-spacing="0.1em"><tspan x="-85.21" y="0">nomads</tspan></text>
  </g>
</svg>
